<?xml version="1.0" standalone="no"?>
<!DOCTYPE svg PUBLIC "-//W3C//DTD SVG 20010904//EN"
 "http://www.w3.org/TR/2001/REC-SVG-20010904/DTD/svg10.dtd">
<svg version="1.0" xmlns="http://www.w3.org/2000/svg"
 width="200.000000pt" height="200.000000pt" viewBox="0 0 200.000000 200.000000"
 preserveAspectRatio="xMidYMid meet">
<metadata>
Created by potrace 1.15, written by Peter Selinger 2001-2017
</metadata>
<g transform="translate(0.000000,200.000000) scale(0.100000,-0.100000)"
fill="#000000" stroke="none">
<path d="M305 1982 c-84 -29 -159 -89 -214 -169 -86 -126 -80 -336 13 -463
l33 -45 -23 -50 c-100 -218 -89 -506 27 -738 126 -251 389 -448 668 -501 106
-20 295 -21 400 -1 283 54 549 256 673 510 71 147 82 199 83 385 0 178 -10
237 -61 352 l-26 57 30 48 c50 79 65 140 60 246 -4 107 -30 172 -98 250 -87
98 -193 142 -330 135 -113 -6 -186 -38 -264 -117 l-58 -58 -156 4 c-87 3 -184
0 -217 -5 -52 -9 -61 -8 -69 7 -20 37 -105 106 -166 135 -56 26 -78 31 -160
33 -71 2 -108 -2 -145 -15z m251 -126 c47 -22 104 -68 104 -84 0 -4 -19 -15
-43 -25 -128 -52 -290 -174 -370 -278 l-44 -57 -22 42 c-42 78 -43 194 -1 277
25 48 101 114 153 133 67 23 163 20 223 -8z m1139 -3 c46 -24 106 -84 128
-128 36 -73 38 -173 5 -247 l-23 -50 -55 67 c-71 87 -190 176 -312 235 l-97
47 33 32 c52 50 117 72 206 68 51 -3 88 -10 115 -24z m-492 -162 c183 -47 353
-149 460 -277 65 -76 138 -216 163 -309 75 -283 -35 -606 -270 -792 -176 -138
-375 -202 -596 -190 -262 15 -495 139 -641 340 -104 142 -150 282 -150 451 0
105 12 173 48 270 32 85 125 227 190 287 119 112 286 197 444 228 85 17 270
12 352 -8z"/>
<path d="M635 1314 c-31 -34 -32 -65 -2 -100 60 -69 165 4 123 85 -26 49 -83
56 -121 15z"/>
<path d="M1249 1327 c-62 -48 -34 -140 43 -140 36 0 78 41 78 77 0 55 -79 96
-121 63z"/>
<path d="M887 1040 c-199 -36 -344 -126 -407 -254 -82 -163 3 -344 204 -441
113 -54 184 -69 326 -69 142 0 213 15 326 69 360 173 294 559 -116 675 -85 24
-257 34 -333 20z m230 -81 c158 -22 298 -103 347 -200 102 -205 -121 -403
-454 -403 -384 0 -609 265 -401 473 108 108 304 158 508 130z"/>
<path d="M935 936 c-17 -7 -43 -28 -58 -45 -131 -157 65 -373 232 -256 112 77
93 257 -32 304 -38 15 -105 13 -142 -3z m133 -91 c35 -29 44 -62 27 -102 -17
-41 -40 -56 -85 -56 -45 0 -74 20 -88 61 -30 89 74 158 146 97z"/>
</g>
</svg>
